<svg xmlns="http://www.w3.org/2000/svg" xmlns:svg="http://www.w3.org/2000/svg" id="svg5297" width="378" height="378" version="1.1" viewBox="0 0 100.013 100.013"><metadata id="metadata5294"/><g id="layer1" transform="translate(-673.74806,2005.9639)"><g id="flowRoot5853" fill="#fff" fill-opacity="1" stroke="none" aria-label="A.L" font-family="sans-serif" font-size="684.453" font-stretch="normal" font-style="normal" font-variant="normal" font-weight="normal" letter-spacing="0" text-anchor="start" transform="matrix(0.62646827,0,0,0.85195363,6315.0881,4957.737)" word-spacing="0" writing-mode="lr-tb" style="line-height:1.25;-inkscape-font-specification:'sans-serif, Normal';font-variant-ligatures:normal;font-variant-caps:normal;font-variant-numeric:normal;font-feature-settings:normal;text-align:start"><g id="g884"><rect id="rect5844" width="159.532" height="117.279" x="-9004.933" y="-8173.746" fill="#00415a" fill-opacity=".941" stroke="#00415a" stroke-dasharray="none" stroke-miterlimit="4" stroke-opacity="1" stroke-width=".113" opacity=".988" paint-order="stroke fill markers" rx="20.751" ry="15.259" stop-opacity="1"/><path id="rect5197" fill="#fff" fill-opacity="1" stroke="#00415a" stroke-dasharray="none" stroke-miterlimit="4" stroke-opacity="1" stroke-width=".116" d="m -8925.1754,-8160.4132 -54.5872,67.2096 47.7563,-19.7441 6.8309,-2.8217 z m 0,0 54.5872,67.2096 -47.7563,-19.7441 -6.8309,-2.8217 z" opacity=".988" paint-order="stroke fill markers" stop-opacity="1" transform="translate(2.9145627e-4,-1.5495042e-4)"/><g id="g844" opacity="1" transform="matrix(0.92431058,0,0,0.92431058,-777.25681,-660.90662)"><ellipse id="ellipse4556" cx="-8815.121" cy="-8062.955" fill="#fff" fill-opacity="1" stroke="#00415a" stroke-dasharray="none" stroke-miterlimit="4" stroke-opacity="1" stroke-width=".15" opacity=".988" paint-order="stroke fill markers" rx="76.575" ry="56.294"/><ellipse id="ellipse4558" cx="-8815.121" cy="-8062.955" fill="#00415a" fill-opacity="1" stroke="#00415a" stroke-dasharray="none" stroke-miterlimit="4" stroke-opacity="1" stroke-width=".134" opacity=".988" paint-order="stroke fill markers" rx="68.362" ry="50.256"/></g><path id="path4560" fill="#fff" fill-opacity="1" stroke="#00415a" stroke-dasharray="none" stroke-miterlimit="4" stroke-opacity="1" stroke-width=".116" d="m -8925.1754,-8160.4132 -54.5872,67.2096 47.7563,-19.7441 6.8309,-2.8217 z m 0,0 54.5872,67.2096 -47.7563,-19.7441 -6.8309,-2.8217 z" opacity=".988" paint-order="stroke fill markers" stop-opacity="1" transform="translate(2.9145627e-4,-1.5495042e-4)"/></g></g></g></svg>